HIERARCHY
ROOT Hips
{
	OFFSET 0.00000 0.00000 0.00000
	CHANNELS 6 Xposition Yposition Zposition Yrotation Zrotation Xrotation 
	JOINT Lumbar
	{
		OFFSET 0 0 0
		CHANNELS 3 Zrotation Xrotation Yrotation
		JOINT Neck
		{
			OFFSET 0.00 0.2701 0.00
			CHANNELS 3 Zrotation Xrotation Yrotation
			End Site
			{
				OFFSET 0.00 0.1379 0.00
			}
		}
		JOINT RightShoulder
		{
			OFFSET 0.0119 0.2289 0.1181
			CHANNELS 3 Zrotation Xrotation Yrotation
			JOINT RightElbow
			{
				OFFSET 0.00 -0.1475 0.00
				CHANNELS 2 Zrotation Yrotation
				JOINT RightWrist
				{
					OFFSET 0.00 -0.1605 0.00
					CHANNELS 2 Zrotation Xrotation
					End Site
					{
						OFFSET 0.0040 -0.1068 0.0006
					}
				}
			}
		}
		JOINT LeftShoulder
		{
			OFFSET 0.0119 0.2289 -0.1181
			CHANNELS 3 Zrotation Xrotation Yrotation
			JOINT LeftElbow
			{
				OFFSET 0.00 -0.1475 0.00
				CHANNELS 2 Zrotation Yrotation
				JOINT LeftWrist
				{
					OFFSET 0.00 -0.1605 0.00
					CHANNELS 2 Zrotation Xrotation
					End Site
					{
						OFFSET 0.0040 -0.1068 -0.0006
					}
				}
			}
		}
	}
	JOINT RightHip
	{
		OFFSET 0.0316 -0.0424 0.0458
		CHANNELS 3 Zrotation Xrotation Yrotation
		JOINT RightKnee
		{
			OFFSET 0.00 -0.2438 0.00
			CHANNELS 1 Zrotation
			JOINT RightAnkle
			{
				OFFSET 0.00 -0.2449 0.00
				CHANNELS 3 Zrotation Xrotation Yrotation
				End Site
				{
					OFFSET 0.1237 -0.0542 0.0051
				}
			}
		}
	}
	JOINT LeftHip
	{
		OFFSET 0.0316 -0.0424 -0.0458
		CHANNELS 3 Zrotation Xrotation Yrotation
		JOINT LeftKnee
		{
			OFFSET 0.00 -0.2438 0.00
			CHANNELS 1 Zrotation
			JOINT LeftAnkle
			{
				OFFSET 0.00 -0.2449 0.00
				CHANNELS 3 Zrotation Xrotation Yrotation
				End Site
				{
					OFFSET 0.1237 -0.0542 -0.0051
				}
			}
		}
	}
}
MOTION
Frames: 21
Frame Time: 0.02
-0.38836 -0.16452 0.08489 906.76371 -18.97208 -0.79394 22.52402 0.3633 -5.21951 -4.76048 -1.99266 -0.83079 169.88198 -171.02778 -90.01166 137.62446 151.65075 -74.66913 -15.06537 169.88196 148.55975 90.01164 84.5985 -68.58452 -79.69812 22.97169 87.72086 -10.67703 -4.67775 -81.64776 -9.34061 -0.26616 -0.80295 89.30583 12.13435 1.8953 -77.16654 -10.40727 1.38981 1.4711
-0.38805 -0.16466 0.0848 906.68923 -18.98335 -0.76446 22.49677 0.30265 -4.94065 -5.03895 -1.62577 -0.83079 169.88195 -171.02788 -90.01163 137.62445 151.84556 -74.52226 -15.09539 169.88196 148.89553 90.01164 81.71946 -68.59511 -79.69816 22.97224 87.67666 -10.61912 -4.53049 -81.57274 -9.26888 -0.25105 -0.7969 89.34675 12.07595 1.72958 -77.37624 -10.1377 1.53759 1.54752
-0.38769 -0.16489 0.08469 906.5941 -18.97729 -0.74309 22.44704 0.25079 -4.54938 -5.36904 -1.19667 -0.83079 169.88192 -171.02786 -90.01158 137.62444 151.79677 -74.50002 -15.11048 169.88197 149.33264 90.01165 79.26327 -68.57635 -79.69823 22.97314 87.58061 -10.38566 -4.40053 -81.50591 -9.11012 -0.32333 -0.8367 89.43646 11.99115 1.6331 -77.72816 -9.82476 1.78731 1.67856
-0.38736 -0.16507 0.08459 906.51207 -18.97449 -0.71836 22.40466 0.19823 -4.21377 -5.67376 -0.79958 -0.83079 169.8819 -171.0278 -90.01155 137.62443 151.84971 -74.42363 -15.1354 169.88197 149.72079 90.01165 76.67428 -68.57308 -79.69829 22.97385 87.50499 -10.25363 -4.27509 -81.44447 -8.98578 -0.36013 -0.85748 89.49586 11.92327 1.51063 -78.01283 -9.53324 1.99318 1.78586
-0.38699 -0.16527 0.08447 906.41545 -18.98963 -0.69236 22.3732 0.13188 -3.85861 -5.9912 -0.38617 -0.83079 169.88186 -171.02779 -90.0115 137.62442 151.89793 -74.33722 -15.16267 169.88198 150.12718 90.01166 73.83342 -68.56187 -79.69836 22.97468 87.44038 -10.03627 -4.10086 -81.34256 -8.88321 -0.37825 -0.87017 89.58543 11.83363 1.36505 -78.3047 -9.23254 2.19065 1.88973
-0.3867 -0.16546 0.0844 906.34397 -18.96392 -0.6709 22.31417 0.09624 -3.5171 -6.29272 0.00746 -0.83079 169.88184 -171.02776 -90.01148 137.62441 151.9133 -74.29988 -15.17585 169.88198 150.51871 90.01167 71.61561 -68.55891 -79.69841 22.97534 87.34141 -9.95073 -4.02965 -81.3279 -8.71511 -0.45621 -0.9107 89.62546 11.7822 1.28301 -78.61709 -8.94157 2.42816 2.01283
-0.38665 -0.16562 0.08451 906.34609 -18.82936 -0.65977 22.18396 0.14402 -3.24695 -6.53593 0.33566 -0.83079 169.88186 -171.02778 -90.0115 137.62442 151.91263 -74.38276 -15.15147 169.88199 150.82651 90.01167 71.0472 -68.5972 -79.69842 22.97546 87.16011 -10.29542 -4.25594 -81.5492 -8.38116 -0.67945 -1.01744 89.51578 11.85823 1.37247 -78.94817 -8.68617 2.762 2.18104
-0.38669 -0.16577 0.08466 906.37418 -18.65473 -0.65297 22.02712 0.22222 -2.99359 -6.76059 0.6409 -0.83079 169.88189 -171.02781 -90.01154 137.62443 151.89084 -74.50822 -15.11169 169.88198 151.11739 90.01167 71.08673 -68.64302 -79.69841 22.97539 86.94652 -10.77392 -4.58192 -81.85869 -7.98546 -0.95961 -1.1505 89.35547 11.97134 1.52143 -79.29599 -8.44274 3.13048 2.36562
-0.38669 -0.16592 0.08479 906.39089 -18.49865 -0.64427 21.8829 0.28604 -2.72837 -6.99465 0.95388 -0.83079 169.88191 -171.02783 -90.01157 137.62443 151.87505 -74.60411 -15.07827 169.88198 151.42761 90.01167 70.826 -68.67753 -79.69841 22.9754 86.74788 -11.17534 -4.85056 -82.1302 -7.62185 -1.21312 -1.27129 89.21936 12.05729 1.63451 -79.63891 -8.19524 3.47589 2.53908
-0.38668 -0.16609 0.08494 906.40533 -18.3398 -0.63547 21.73534 0.35265 -2.47623 -7.22806 1.28077 -0.83079 169.88193 -171.02785 -90.0116 137.62444 151.86488 -74.74668 -15.04727 169.88199 151.69531 90.01167 70.6771 -68.74292 -79.69842 22.97546 86.54554 -11.6394 -5.17028 -82.39375 -7.23769 -1.4736 -1.39524 89.07924 12.18466 1.78641 -79.97581 -7.9401 3.85573 2.72999
-0.38671 -0.16621 0.08506 906.43065 -18.17833 -0.6279 21.58911 0.42039 -2.20338 -7.45578 1.57195 -0.83079 169.88196 -171.02787 -90.01163 137.62445 151.84164 -74.80147 -15.00775 169.88198 152.04245 90.01167 70.43924 -68.74792 -79.69841 22.97535 86.34481 -12.00701 -5.40753 -82.69394 -6.88348 -1.73115 -1.51791 88.93561 12.23637 1.87181 -80.32673 -7.70467 4.17085 2.88775
-0.38679 -0.16618 0.08512 906.48226 -18.01189 -0.62182 21.44971 0.48528 -1.86089 -7.68857 1.77355 -0.83079 169.88196 -171.02788 -90.01163 137.62445 151.78769 -74.59462 -14.94748 169.88198 152.6445 90.01166 69.76189 -68.56932 -79.69836 22.97477 86.14898 -12.07644 -5.3881 -83.07991 -6.62193 -1.97319 -1.63351 88.78772 12.05812 1.74943 -80.71695 -7.51784 4.29731 2.9493
-0.3869 -0.16611 0.08515 906.54362 -17.84561 -0.61693 21.31322 0.54993 -1.49931 -7.91306 1.93891 -0.83079 169.88196 -171.02788 -90.01163 137.62445 151.72263 -74.29901 -14.87937 169.88198 153.32066 90.01165 68.98035 -68.33261 -79.6983 22.97402 85.9575 -12.04493 -5.28288 -83.49816 -6.39416 -2.20865 -1.74614 88.63903 11.805 1.55981 -81.11885 -7.35129 4.35712 2.97673
-0.387 -0.16605 0.08519 906.5988 -17.6844 -0.61202 21.17781 0.61368 -1.15228 -8.13025 2.1185 -0.83079 169.88196 -171.02788 -90.01163 137.62445 151.66388 -74.04916 -14.81555 169.88197 153.94176 90.01165 68.27393 -68.1325 -79.69825 22.97336 85.76922 -12.05986 -5.21998 -83.89804 -6.15463 -2.4424 -1.85803 88.49516 11.59395 1.40654 -81.51197 -7.17749 4.44799 3.01999
-0.38712 -0.166 0.08526 906.66187 -17.50042 -0.60514 21.03164 0.68278 -0.78017 -8.3931 2.30738 -0.83079 169.88196 -171.02788 -90.01163 137.62445 151.59891 -73.77786 -14.74817 169.88197 154.65267 90.01164 67.47167 -67.88967 -79.69819 22.97261 85.55807 -12.0768 -5.14697 -84.31817 -5.89733 -2.69806 -1.97974 88.33109 11.34953 1.22973 -81.92152 -6.99543 4.53721 3.06265
-0.3872 -0.16594 0.08527 906.71098 -17.364 -0.60249 20.9085 0.74024 -0.45655 -8.55971 2.46784 -0.83079 169.88196 -171.02788 -90.01163 137.62445 151.54454 -73.52973 -14.68647 169.88196 155.19427 90.01163 66.83643 -67.72186 -79.69815 22.97202 85.39583 -12.06405 -5.07276 -84.70068 -5.68639 -2.90572 -2.0799 88.2091 11.15722 1.08669 -82.29802 -6.83566 4.61317 3.09803
-0.38718 -0.16591 0.08508 906.71473 -17.36268 -0.61212 20.85234 0.76601 -0.26321 -8.45743 2.5648 -0.83079 169.88196 -171.02788 -90.01163 137.62445 151.52269 -73.36569 -14.64293 169.88196 155.25076 90.01163 66.68298 -67.77578 -79.69814 22.97193 85.36953 -11.992 -5.02092 -84.98769 -5.59144 -2.98239 -2.12147 88.20782 11.11927 1.03946 -82.59098 -6.72946 4.67193 3.12313
-0.38712 -0.16588 0.08484 906.70468 -17.40872 -0.62584 20.81873 0.77993 -0.1209 -8.25968 2.63314 -0.83079 169.88196 -171.02788 -90.01163 137.62445 151.51176 -73.22804 -14.60524 169.88196 155.13444 90.01163 66.69858 -67.90699 -79.69814 22.972 85.39212 -11.89331 -4.96962 -85.23218 -5.54309 -3.01063 -2.14126 88.24846 11.13736 1.03027 -82.84776 -6.64578 4.7188 3.14167
-0.38709 -0.16585 0.08463 906.70382 -17.43075 -0.63702 20.77217 0.79873 0.03956 -8.10904 2.71095 -0.83079 169.88196 -171.02788 -90.01163 137.62445 151.49586 -73.07929 -14.56475 169.88196 155.09677 90.01163 66.63742 -68.00266 -79.69814 22.97198 85.39118 -11.80744 -4.91432 -85.48508 -5.47609 -3.06086 -2.1708 88.2672 11.13508 1.0132 -83.11461 -6.55334 4.769 3.16218
-0.38705 -0.16583 0.08439 906.6914 -17.46315 -0.65088 20.73672 0.81929 0.22243 -7.94216 2.80334 -0.83079 169.88196 -171.02788 -90.01163 137.62445 151.48033 -72.92409 -14.52507 169.88196 155.06054 90.01163 66.57451 -68.09848 -79.69814 22.97199 85.39584 -11.715 -4.87132 -85.78545 -5.39921 -3.1112 -2.20101 88.29749 11.10978 0.95644 -83.41056 -6.45421 4.82598 3.1859
-0.387 -0.1658 0.08419 906.69917 -17.48531 -0.66043 20.6839 0.83385 0.34569 -7.78679 2.85788 -0.83079 169.88196 -171.02788 -90.01163 137.62445 151.46582 -72.78922 -14.48456 169.88196 154.98012 90.01163 66.55448 -68.21258 -79.69815 22.972 85.40049 -11.63136 -4.80473 -85.97612 -5.35401 -3.14958 -2.22454 88.31422 11.14532 0.98934 -83.63491 -6.37555 4.86648 3.20169
